<svg xmlns="http://www.w3.org/2000/svg" width="1024" height="1024" viewBox="0 0 1024 1024" fill="none">
  <defs>
    <linearGradient id="bg" x1="152" y1="96" x2="872" y2="928" gradientUnits="userSpaceOnUse">
      <stop stop-color="#ecfdf5"/>
      <stop offset="0.52" stop-color="#d1fae5"/>
      <stop offset="1" stop-color="#a7f3d0"/>
    </linearGradient>
    <linearGradient id="glass" x1="208" y1="120" x2="816" y2="744" gradientUnits="userSpaceOnUse">
      <stop stop-color="#ffffff" stop-opacity="0.72"/>
      <stop offset="0.42" stop-color="#ffffff" stop-opacity="0.24"/>
      <stop offset="1" stop-color="#ffffff" stop-opacity="0"/>
    </linearGradient>
  </defs>
  <rect width="1024" height="1024" fill="url(#bg)"/>
  <path d="M172 148C291 48 499 58 654 112C809 166 919 277 930 416C941 555 854 721 720 818C586 915 405 942 280 864C155 786 86 603 92 456C98 309 53 248 172 148Z" fill="url(#glass)"/>
  <g transform="translate(190 204) scale(27)" opacity="0.18">
    <path d="M11 15h2a2 2 0 1 0 0-4h-3c-.6 0-1.1.2-1.4.6L3 17" stroke="#047857" stroke-width="2.25" stroke-linecap="round" stroke-linejoin="round"/>
    <path d="m7 21 1.6-1.4c.3-.4.8-.6 1.4-.6h4c1.1 0 2.1-.4 2.8-1.2l4.6-4.4a2 2 0 0 0-2.75-2.91l-4.2 3.9" stroke="#047857" stroke-width="2.25" stroke-linecap="round" stroke-linejoin="round"/>
    <path d="m2 16 6 6" stroke="#047857" stroke-width="2.25" stroke-linecap="round" stroke-linejoin="round"/>
    <circle cx="16" cy="9" r="2.9" stroke="#047857" stroke-width="2.25" stroke-linecap="round" stroke-linejoin="round"/>
    <circle cx="6" cy="5" r="3" stroke="#047857" stroke-width="2.25" stroke-linecap="round" stroke-linejoin="round"/>
  </g>
  <g transform="translate(176 176) scale(28)">
    <path d="M11 15h2a2 2 0 1 0 0-4h-3c-.6 0-1.1.2-1.4.6L3 17" stroke="#047857" stroke-width="2.25" stroke-linecap="round" stroke-linejoin="round"/>
    <path d="m7 21 1.6-1.4c.3-.4.8-.6 1.4-.6h4c1.1 0 2.1-.4 2.8-1.2l4.6-4.4a2 2 0 0 0-2.75-2.91l-4.2 3.9" stroke="#047857" stroke-width="2.25" stroke-linecap="round" stroke-linejoin="round"/>
    <path d="m2 16 6 6" stroke="#047857" stroke-width="2.25" stroke-linecap="round" stroke-linejoin="round"/>
    <circle cx="16" cy="9" r="2.9" stroke="#047857" stroke-width="2.25" stroke-linecap="round" stroke-linejoin="round"/>
    <circle cx="6" cy="5" r="3" stroke="#047857" stroke-width="2.25" stroke-linecap="round" stroke-linejoin="round"/>
  </g>
</svg>
